<?xml version="1.0" standalone="no"?>
<!DOCTYPE svg PUBLIC "-//W3C//DTD SVG 20010904//EN"
 "http://www.w3.org/TR/2001/REC-SVG-20010904/DTD/svg10.dtd">
<svg version="1.0" xmlns="http://www.w3.org/2000/svg"
 width="520.000000pt" height="520.000000pt" viewBox="0 0 520.000000 520.000000"
 preserveAspectRatio="xMidYMid meet">
<metadata>
Created by potrace 1.11, written by Peter Selinger 2001-2013
</metadata>
<g transform="translate(0.000000,520.000000) scale(0.100000,-0.100000)"
fill="#000000" stroke="none">
<path d="M2644 4219 c-3 -5 -10 -7 -15 -4 -5 4 -9 2 -9 -2 0 -5 -11 -10 -26
-11 -14 -1 -33 -6 -43 -12 -10 -5 -21 -6 -25 -3 -3 3 -6 1 -6 -6 0 -7 -4 -10
-8 -7 -12 7 -82 -15 -82 -26 0 -5 -4 -6 -10 -3 -5 3 -10 2 -10 -3 0 -5 -25 -9
-55 -10 -34 0 -53 4 -49 10 4 6 -2 5 -14 -1 -12 -6 -24 -16 -28 -23 -4 -7 -3
-8 4 -4 8 4 10 2 6 -8 -3 -8 -22 -21 -42 -27 -52 -18 -65 -19 -78 -8 -9 7 -14
4 -18 -9 -7 -21 -52 -46 -67 -37 -5 4 -9 2 -9 -3 0 -6 -9 -8 -20 -5 -14 4 -22
-1 -29 -19 -12 -32 -78 -98 -138 -139 -26 -17 -54 -39 -61 -48 -7 -9 -18 -16
-25 -16 -7 0 -11 -10 -11 -23 1 -12 -3 -22 -7 -22 -5 0 -9 -7 -9 -16 0 -9 -16
-46 -36 -83 -20 -36 -44 -79 -52 -96 -8 -16 -20 -37 -27 -45 -18 -23 -84 -187
-78 -194 4 -3 1 -6 -5 -6 -7 0 -12 -9 -12 -19 0 -11 -6 -26 -12 -33 -15 -15
-22 -48 -11 -48 4 0 8 -11 8 -24 0 -13 -5 -22 -11 -19 -13 5 -45 -23 -70 -62
-10 -16 -26 -38 -34 -48 -8 -10 -15 -22 -15 -26 0 -5 -12 -23 -28 -40 -15 -17
-24 -31 -20 -31 5 0 3 -4 -2 -8 -6 -4 -21 -22 -34 -40 -13 -19 -34 -45 -46
-58 -12 -13 -21 -34 -20 -46 1 -13 -2 -25 -6 -28 -5 -3 -10 -15 -13 -25 -9
-41 -19 -65 -27 -65 -5 0 -8 -3 -7 -7 1 -5 -6 -25 -15 -46 -9 -21 -16 -41 -15
-45 1 -4 -4 -20 -10 -35 -7 -16 -12 -33 -12 -38 0 -5 -4 -17 -9 -27 -34 -65
-49 -122 -65 -247 -2 -16 -6 -39 -9 -50 -10 -42 -20 -142 -19 -192 0 -29 -3
-53 -6 -53 -6 0 -9 -22 -11 -75 -2 -29 1 -50 6 -65 4 -8 8 -37 10 -65 1 -27 6
-57 9 -65 4 -8 8 -26 10 -40 4 -31 9 -50 18 -72 4 -9 5 -22 1 -28 -3 -5 -2
-10 2 -10 5 0 17 -16 27 -35 11 -19 23 -35 28 -35 4 0 7 -3 7 -7 -3 -20 2 -34
11 -28 6 3 10 -1 10 -9 0 -9 5 -16 10 -16 6 0 10 -6 10 -14 0 -8 3 -16 7 -18
13 -5 63 -76 63 -87 0 -6 5 -11 11 -11 5 0 7 -4 4 -10 -3 -5 -1 -10 5 -10 6 0
9 -4 5 -9 -3 -6 4 -15 15 -21 11 -6 20 -8 20 -4 0 3 7 1 15 -6 8 -7 15 -10 15
-7 0 3 32 -12 71 -34 40 -21 76 -39 80 -39 5 0 9 -4 9 -8 0 -5 23 -19 50 -32
27 -13 50 -27 50 -32 0 -5 13 -8 29 -6 16 1 36 -4 45 -11 9 -8 16 -9 16 -3 0
7 10 6 27 -3 15 -8 30 -12 35 -9 4 3 8 1 8 -3 0 -5 28 -15 63 -23 70 -15 66
-14 89 -24 19 -9 135 -2 145 7 3 4 12 2 20 -4 7 -6 13 -7 13 -2 0 5 12 8 28 7
15 -1 32 2 37 6 6 4 21 7 35 6 14 -1 30 1 36 6 6 4 20 9 32 11 12 2 24 6 28 9
3 4 12 4 20 1 8 -3 14 1 14 8 0 7 3 10 6 6 4 -3 21 0 39 8 19 7 36 11 39 8 3
-3 12 0 21 7 8 7 15 10 15 6 0 -3 11 -1 26 4 31 12 77 22 124 26 65 6 103 14
116 25 11 9 14 8 14 -1 0 -9 10 -11 38 -5 20 4 60 6 87 5 28 -1 130 -4 228 -6
149 -4 177 -8 177 -20 0 -14 2 -13 16 0 19 19 28 21 18 4 -5 -8 -1 -7 10 2 10
8 24 15 32 17 21 4 37 9 59 17 45 17 50 19 62 22 38 8 83 27 83 35 0 6 5 7 11
3 6 -3 14 -2 18 3 3 5 30 24 58 42 49 30 66 47 116 113 11 14 29 24 50 25 38
2 73 9 88 18 12 8 31 51 34 78 2 9 3 18 5 20 1 1 3 11 4 22 4 34 17 116 21
133 3 14 24 67 70 177 4 11 7 26 6 33 -1 6 2 12 7 12 4 0 9 19 11 42 1 23 4
45 7 49 2 4 -5 14 -17 23 -12 8 -18 19 -15 25 4 5 -2 9 -11 9 -10 0 -22 1 -28
2 -29 9 -64 -14 -86 -58 -13 -26 -26 -49 -30 -52 -10 -9 -33 -55 -31 -62 1 -5
-3 -8 -9 -8 -5 0 -8 -4 -4 -9 3 -5 1 -12 -4 -16 -12 -7 -52 25 -45 37 3 4 1 8
-4 8 -5 0 -22 20 -38 45 -15 25 -35 47 -45 50 -9 3 -24 14 -33 23 -13 15 -14
22 -3 35 11 16 21 20 91 33 16 2 41 13 55 23 14 10 36 22 49 25 12 4 22 12 22
17 0 6 5 7 10 4 6 -3 10 -1 10 5 0 6 5 8 10 5 6 -3 10 1 10 10 0 9 5 13 11 10
9 -6 26 10 56 50 5 6 9 17 11 24 1 7 10 24 19 38 22 34 22 121 -1 156 -10 14
-19 32 -20 40 -1 8 -6 21 -12 28 -11 15 -11 24 0 54 4 11 13 34 19 50 7 17 12
32 12 35 0 3 4 10 8 16 4 7 9 29 11 50 7 57 16 95 27 116 6 10 7 33 4 51 -3
18 -6 37 -6 42 0 6 0 37 0 70 1 112 2 128 11 144 5 10 2 24 -10 41 -10 14 -18
28 -19 32 -9 50 -15 68 -22 68 -5 0 -8 3 -8 8 1 4 0 9 -1 12 -1 3 -3 14 -5 25
-6 38 -14 65 -23 81 -5 9 -7 25 -5 35 3 11 1 19 -5 19 -16 0 -10 44 8 61 8 8
38 25 65 39 28 14 52 28 53 33 2 4 8 5 13 1 5 -3 9 0 9 5 0 6 7 11 15 11 9 0
20 12 26 28 6 15 18 40 26 55 11 21 13 41 7 80 -4 29 -7 57 -6 64 2 6 -8 15
-20 19 -13 3 -26 11 -29 16 -4 6 -28 12 -55 13 -27 2 -49 4 -49 5 0 2 -20 4
-45 6 -42 3 -124 12 -160 17 -8 2 -21 6 -27 10 -7 5 -17 5 -23 2 -5 -3 -10 -1
-10 4 0 6 -8 11 -18 11 -10 0 -22 3 -26 7 -3 4 -13 8 -21 9 -8 1 -27 11 -43
23 -16 11 -32 18 -35 15 -5 -6 -82 34 -129 67 -14 11 -31 19 -37 19 -6 0 -11
5 -11 12 0 6 -3 9 -6 6 -3 -4 -37 9 -74 28 -38 19 -72 34 -76 34 -3 0 -18 8
-32 19 -25 17 -84 22 -98 8 -3 -3 -18 -1 -33 4 -14 6 -37 12 -51 14 -47 6
-125 22 -125 25 0 2 -16 4 -35 5 -100 9 -141 14 -151 21 -7 4 -9 3 -5 -4 4 -7
-1 -10 -14 -9 -11 1 -20 4 -20 7 0 9 -60 8 -66 -1z"/>
</g>
</svg>
